# xmcd CD database file
#
# Track frame offsets:
#	150
#	13247
#	26941
#	41538
#	53659
#	66819
#	78984
#	90913
#	102460
#	115845
#	128719
#	141202
#
# Disc length: 2057 seconds
#
# Revision: 0
# Processed by: cddbd v1.5.1PL2 Copyright (c) Steve Scherf et al.
# Submitted via: CDex 1.51
#
DISCID=9b08070c
DTITLE=Muddy Waters - The Real Folk Blues
DYEAR=1900
DGENRE=Blues
TTITLE0=Mannish Boy
TTITLE1=Screamin' and Cryin'
TTITLE2=Just To Be With You
TTITLE3=Walking Thru The Park
TTITLE4=Walkin' Blues
TTITLE5=Canary Bird
TTITLE6=Same Thing
TTITLE7=Gypsy Woman
TTITLE8=Rollin' and Tumblin'
TTITLE9=40 Days And 40 Nights
TTITLE10=Little Geneva
TTITLE11=You Can't Lose What You Never Had
EXTD=
EXTT0=
EXTT1=
EXTT2=
EXTT3=
EXTT4=
EXTT5=
EXTT6=
EXTT7=
EXTT8=
EXTT9=
EXTT10=
EXTT11=
PLAYORDER=
